<?xml version="1.0" encoding="utf-8"?>
<!-- Generator: Adobe Illustrator 24.1.2, SVG Export Plug-In . SVG Version: 6.00 Build 0)  -->
<svg version="1.1" id="Camada_1" xmlns="http://www.w3.org/2000/svg" xmlns:xlink="http://www.w3.org/1999/xlink" x="0px" y="0px"
	 viewBox="0 0 500 250" style="enable-background:new 0 0 500 250;" xml:space="preserve">
<style type="text/css">
	.st0{fill:#2A0055;}
	.st1{fill:#FFBFAA;}
	.st2{fill:#FF5C5C;}
	.st3{fill:#FFFFFF;}
	.st4{fill:#00C9B9;}
	.st5{fill:#AA5FFF;}
</style>
<g>
	<g>
		<path class="st0" d="M421.3,22.3c-0.1-1-0.7-1.9-1.5-2.5c-1.1-0.7-2.6-1-4.2-0.7c0,0,0,0-0.1,0c0.1-0.2,0.3-0.4,0.4-0.5
			c0.3-0.3,0.3-0.8,0-1.1c-0.3-0.3-0.8-0.3-1.1,0c-0.6,0.6-1,1.4-1.3,2.1c-2,0.6-5,2-5.9,4.8c-0.3,1.1-0.4,2.2-0.1,3.2
			c-0.5,0.6-0.9,1.2-1.3,1.9c-0.6,1.1-1.1,2.2-1.6,3.3c-0.2,0.4,0,0.9,0.4,1c0.1,0.1,0.3,0.1,0.4,0.1c0.3,0,0.5-0.2,0.6-0.5
			c0.4-0.9,0.8-1.8,1.2-2.7c0.3-0.5,0.6-1.1,1-1.5c0.2,0.3,0.4,0.5,0.6,0.7c0.9,0.8,1.9,1.3,3.1,1.5c1.3,0.2,2.5,0,3.5-0.6
			c0.8-0.5,1.3-1.3,1.4-2.1c0.1-0.9-0.2-1.8-0.9-2.5c-0.6-0.5-1.3-0.9-2.2-1.1c-1.2-0.2-2.6,0-3.8,0.6c-0.4,0.2-0.7,0.4-1.1,0.6
			c0-0.5,0-1,0.2-1.5c0.6-1.9,2.6-3,4.3-3.6c0.4,2.2,2.6,3.7,4.6,3.8c1,0.1,1.9-0.2,2.6-0.8C421.1,23.8,421.4,23.1,421.3,22.3z
			 M410.7,27.2c0.9-0.4,1.9-0.6,2.8-0.4c0.4,0.1,1,0.2,1.4,0.6c0.3,0.3,0.5,0.8,0.4,1.1c-0.1,0.4-0.3,0.7-0.7,1
			c-1.5,0.9-3.4,0.3-4.6-0.8c-0.2-0.2-0.4-0.4-0.6-0.7C409.8,27.7,410.3,27.4,410.7,27.2z M419.4,23.2c-0.3,0.3-0.8,0.4-1.3,0.4
			c-1.5-0.1-3.1-1.2-3.2-2.7c0.3-0.1,0.6-0.1,0.9-0.2c1.2-0.2,2.3,0,3.1,0.5c0.4,0.3,0.8,0.8,0.8,1.3
			C419.7,22.7,419.6,23,419.4,23.2z"/>
	</g>
	<g>
		<g>
			<g>
				<path class="st1" d="M180,185.1C180,185.1,179.9,185.1,180,185.1c-4.3,0.9-8.8-0.1-12.2-2.7L125.5,150l15.2-12.2l19.6,4.6
					l10.6-33.3l31.2,20.7l-7.1,39.6c-0.9,5.3-4,9.9-8.5,12.8C184.4,183.7,182.3,184.6,180,185.1z"/>
			</g>
			<path class="st0" d="M182.8,20c0.2,0,0.3,0.1,0.5,0.1L182.8,20z"/>
			<path class="st0" d="M246.8,110c-16.9,2.6-34.7,6.7-52.2,7.2c-4,0.1-8,0-12-0.3c-4.4-0.4-9.2-1.2-13.1-3.4
				c-1.7-0.9-3.2-2.1-4.5-3.6c-7-8.3-6.3-21.9-1.3-30.9c6.3-11.5,18.2-18.9,21.7-32.1c1.6-6.1,6-21-0.9-25.9
				c-0.4-0.3-0.8-0.5-1.2-0.7l64.1,15.5c0,0-17.8,27.5,11.4,33.4C287.9,74.9,299.2,101.9,246.8,110z"/>
			<path class="st1" d="M206.6,66.7L206.6,66.7c-7.6,0-13.7-6.2-13.7-13.7V24.1h37.4v18.9C230.2,56.1,219.6,66.7,206.6,66.7z"/>
			<path class="st0" d="M277.6,252h-64.4l-11.4-26l4.6-7.4l0.8-1.3l17.3-28.2l3.4-5.5l1.7-2.8l3.2-5.3l3.7-6
				c3,3.9,6.7,7.8,10.5,11.7c1.6,1.7,3.3,3.3,5,5c0.7,0.7,1.5,1.5,2.2,2.3c11.7,12,22.6,25,20.7,41.5c-0.2,1.7-0.5,3.3-0.5,5
				C274.3,236,275.6,242.4,277.6,252z"/>
			<path class="st0" d="M252.5,181.4l-0.6,4.9l-0.3,2.6l-7.6,63.1h-55.1c-0.2-2.2-0.3-4.3-0.5-6.4c-1.6-20.8-0.6-40,1.1-57.4
				c0.3-2.9,0.6-5.7,0.9-8.4l1.4,0l2,0.1l2.5,0.1l4.8,0.1l19.3,0.5l2.6,0.1l6.3,0.2l0.3,0l2.2,0.1l15.2,0.4L252.5,181.4z"/>
			<path class="st2" d="M192.5,120.4l-9.1,39.8l-26.6-18.5l12-30.5c3.4,3,7.8,4.9,12.1,6.3C184.6,118.6,188.5,119.6,192.5,120.4z"/>
			<g>
				<path class="st1" d="M362.8,94.1l-46.4,67.1c-3.2,4.1-7.9,6.8-13.1,7.4c-5.2,0.6-10.4-0.9-14.5-4.2l-37.5-30.3l24.5-30.2
					l22,17.8l34.7-30.3l1.8-1.6l8.9-7.7l3.1-2.7l15.9,14.1L362.8,94.1z"/>
			</g>
			<polygon class="st1" points="235,17.2 232.4,102.5 206,102.5 206.9,93.9 206.9,93.9 209.2,72.5 215,17.2 			"/>
			<path class="st2" d="M306.9,120.2l-33.9,36.3l-10.3-8.5l-6.2,25.2l-0.7,2.7l-1.7,12.9l-64.2,0.5l-2.6-8.4l-0.6-1.9l-8-25.8
				l-2.7-8.7l-4.5-14.7c-0.1-0.3-0.1-0.6-0.2-0.9c-1.8-8.4,0.7-17.1,6.3-23.5c0.4-0.5,0.9-0.9,1.3-1.4c0.6-0.6,1.3-1.2,2-1.8
				l8.2-6.5l1.6-1.3l4.5-3.6l1.9-1.6l11.2-9L207,91.7l29.4-13.6l6.6,3.9l1.7,1l8.4,4.9l1.7,1l17.6,10.2l1.9,1.1l1.7,1l7.3,4.2
				l2.4,1.4L306.9,120.2z"/>
			<g>
				<path class="st1" d="M187.3,142.9c-1.3-1.4-3.1-2.3-5.1-2.3c-2.4,0-4.5,1.3-5.7,3.2c-0.2,0.3-0.3,0.5-0.4,0.8l2.2,7.3l0.4,1.4
					c1,0.6,2.2,1,3.5,1c0.9,0,1.8-0.2,2.6-0.5c2.4-1,4.2-3.5,4.2-6.3C189,145.7,188.4,144.1,187.3,142.9z M185.5,151
					c-0.9,0.8-2,1.2-3.2,1.2c-1.4,0-2.7-0.6-3.6-1.6c-0.8-0.9-1.3-2-1.3-3.3c0-0.2,0-0.4,0-0.7c0.3-2.4,2.4-4.2,4.8-4.2
					c2,0,3.8,1.2,4.5,3c0.2,0.6,0.4,1.2,0.4,1.9C187.1,148.8,186.5,150.1,185.5,151z"/>
			</g>
			<g>
				<path class="st3" d="M178.1,151.9c-0.3,0-0.5-0.2-0.6-0.5l-6.6-21.3c0,0,0,0,0,0c-0.1-0.3-0.1-0.6-0.2-0.9
					c-1.2-5.3-0.7-10.8,1.4-15.9c0.1-0.3,0.5-0.5,0.9-0.4c0.3,0.1,0.5,0.5,0.4,0.9c-2,4.9-2.4,10.1-1.4,15.2
					c0.1,0.3,0.1,0.6,0.2,0.8l6.6,21.3c0.1,0.3-0.1,0.7-0.4,0.8C178.2,151.8,178.2,151.9,178.1,151.9z"/>
			</g>
			<polygon class="st3" points="209.2,72.5 206.9,93.9 203.5,78.1 			"/>
			<g>
				<path class="st3" d="M184.1,132.7c-1.9,0-3.6-0.2-5.1-0.4c-4.6-0.7-7.8-2-7.9-2.1c-0.3-0.1-0.5-0.5-0.3-0.9
					c0.1-0.3,0.5-0.5,0.9-0.3c0.1,0.1,12.5,5.3,23.8,0c0.3-0.2,0.7,0,0.9,0.3s0,0.7-0.3,0.9C191.9,132.1,187.7,132.7,184.1,132.7z"
					/>
			</g>
			<g>
				<path class="st3" d="M217.2,132.7c-1.9,0-3.6-0.2-5.1-0.4c-4.6-0.7-7.8-2-7.9-2.1c-0.3-0.1-0.5-0.5-0.3-0.9
					c0.1-0.3,0.5-0.5,0.9-0.3c0.1,0.1,12.5,5.3,23.8,0c0.3-0.2,0.7,0,0.9,0.3c0.2,0.3,0,0.7-0.3,0.9
					C225,132.1,220.8,132.7,217.2,132.7z"/>
			</g>
			<g>
				<path class="st3" d="M220.8,252h-1.4c-3.5-12.6-6.1-22.4-6.2-22.5c-0.7-2.5-2.3-4.5-3.9-6.6c-0.7-0.9-1.4-1.8-2.1-2.8
					c-0.3-0.5-0.6-1-0.9-1.5c-1.9-3.2-3.3-7-4.3-11.2c-0.4-1.6-0.7-3.3-0.9-5.2c-0.1-0.4,0.2-0.7,0.6-0.7c0.4,0,0.7,0.2,0.7,0.6
					c0.3,1.8,0.5,3.5,0.9,5c0.9,3.8,2.1,7.2,3.8,10.2c0.4,0.7,0.8,1.4,1.3,2c0.6,0.9,1.3,1.9,2,2.7c1.6,2.1,3.3,4.3,4.1,7
					C214.6,229.2,217.3,239.1,220.8,252z"/>
			</g>
			<g>
				<path class="st0" d="M205,54.2h-3.4c-0.6,0-1.1-0.3-1.5-0.8c-0.3-0.5-0.4-1.1-0.2-1.6l1.6-4.1c0.1-0.3,0.5-0.5,0.9-0.4
					c0.3,0.1,0.5,0.5,0.4,0.9l-1.6,4.1c-0.1,0.2,0,0.4,0,0.4c0,0.1,0.2,0.2,0.4,0.2h3.4c0.4,0,0.7,0.3,0.7,0.7
					C205.7,53.9,205.4,54.2,205,54.2z"/>
			</g>
			<g>
				<path class="st0" d="M202.2,48.5c-0.1,0-0.2,0-0.2,0c-0.3-0.1-0.5-0.5-0.4-0.9l1.3-3.2c0.1-0.3,0.5-0.5,0.9-0.4
					c0.3,0.1,0.5,0.5,0.4,0.9l-1.3,3.2C202.7,48.4,202.5,48.5,202.2,48.5z"/>
			</g>
			<path class="st0" d="M198.2,44.7c0,0.9-0.7,1.6-1.6,1.6s-1.6-0.7-1.6-1.6c0-0.9,0.7-1.6,1.6-1.6S198.2,43.8,198.2,44.7z"/>
			<path class="st0" d="M210.7,44.7c0,0.9-0.7,1.6-1.6,1.6c-0.9,0-1.6-0.7-1.6-1.6c0-0.9,0.7-1.6,1.6-1.6
				C210,43.1,210.7,43.8,210.7,44.7z"/>
			<g>
				<path class="st0" d="M194,40.3c-0.2,0-0.4-0.1-0.5-0.3c-0.2-0.3-0.1-0.7,0.2-0.9c1.5-1,5-2.3,7.8,0c0.3,0.2,0.3,0.7,0.1,0.9
					c-0.2,0.3-0.7,0.3-0.9,0.1c-2.7-2.3-6.1,0-6.2,0C194.2,40.2,194.1,40.3,194,40.3z"/>
			</g>
			<g>
				<path class="st0" d="M206.5,40.3c-0.2,0-0.4-0.1-0.5-0.3c-0.2-0.3-0.1-0.7,0.2-0.9c1.5-1,5-2.3,7.8,0c0.3,0.2,0.3,0.7,0.1,0.9
					c-0.2,0.3-0.7,0.3-0.9,0.1c-2.7-2.3-6.1,0-6.2,0C206.8,40.2,206.6,40.3,206.5,40.3z"/>
			</g>
			<g>
				<path class="st2" d="M207.2,58c-0.2,0-0.3,0-0.3,0c-0.5,0-0.8-0.5-0.8-0.9c0-0.5,0.5-0.8,0.9-0.8c0,0,1.3,0.1,2.1-0.6
					c0.4-0.4,0.6-1.1,0.5-2.1c0-0.5,0.3-0.9,0.8-0.9c0.5,0,0.9,0.3,0.9,0.8c0.2,1.5-0.2,2.6-1,3.5C209.3,57.9,207.8,58,207.2,58z"/>
			</g>
			<path class="st0" d="M208.8,34.5c5.6-0.6,11-2.5,12.8-7c0,0-1.9,13.2,9.6,18.2c3.7,1.6,8.9,2.3,12.3-0.2c5.4-4,4-12,2.6-17.6
				c-6.2-25-35.1-29.6-55.4-19c-7.4,3.9-12.1,11.7-5.1,18.6C191.5,33.2,200.9,35.4,208.8,34.5z"/>
			<path class="st1" d="M234.7,50.6L234.7,50.6c-3.9,0-7.1-3.2-7.1-7.1v-2.5c0-3.9,3.2-7.1,7.1-7.1l0,0c3.9,0,7.1,3.2,7.1,7.1v2.5
				C241.8,47.4,238.6,50.6,234.7,50.6z"/>
			<g>
				<path class="st0" d="M237,44.8c-0.2,0-0.3-0.1-0.4-0.2l-4.6-4.1c-0.3-0.2-0.3-0.7-0.1-0.9c0.2-0.3,0.7-0.3,0.9-0.1l4.6,4.1
					c0.3,0.2,0.3,0.7,0.1,0.9C237.4,44.7,237.2,44.8,237,44.8z"/>
			</g>
			<g>
				<path class="st0" d="M209.7,67.2c-0.3,0-0.6-0.2-0.7-0.6c0-0.4,0.2-0.7,0.6-0.7c3.9-0.5,7.6-1.9,10.7-4.3
					c0.3-0.2,0.7-0.2,0.9,0.1c0.2,0.3,0.2,0.7-0.1,0.9C217.8,65.1,213.9,66.7,209.7,67.2C209.8,67.2,209.7,67.2,209.7,67.2z"/>
			</g>
			<polygon class="st3" points="206.9,90.5 233.3,71.8 238.3,83.8 206.9,95.7 			"/>
			<g>
				<path class="st1" d="M202.6,160.7c-1,0-1.9-0.7-2.6-1.2c-0.8-0.6-1.3-0.9-1.6-0.7c-0.5,0.2-1.1,0-1.3-0.5
					c-0.2-0.5,0-1.1,0.5-1.3c1.5-0.7,2.7,0.3,3.6,1c0.8,0.6,1.3,0.9,1.6,0.7c0.4-0.2,0.4-0.8,0.5-1.7c0.1-1.1,0.2-2.7,1.7-3.3
					c1.5-0.7,2.7,0.3,3.6,1c0.8,0.6,1.3,0.9,1.6,0.7c0.4-0.2,0.4-0.8,0.5-1.7c0.1-1.1,0.2-2.7,1.7-3.3c1.5-0.7,2.7,0.3,3.6,1
					c0.8,0.6,1.3,0.9,1.6,0.7c0.5-0.2,1.1,0,1.3,0.5c0.2,0.5,0,1.1-0.5,1.3c-1.5,0.7-2.7-0.3-3.6-1c-0.8-0.6-1.3-0.9-1.6-0.7
					c-0.4,0.2-0.4,0.8-0.5,1.7c-0.1,1.1-0.2,2.7-1.7,3.3c-1.5,0.7-2.7-0.3-3.6-1c-0.8-0.6-1.3-0.9-1.6-0.7c-0.4,0.2-0.4,0.8-0.5,1.7
					c-0.1,1.1-0.2,2.7-1.7,3.3C203.2,160.6,202.9,160.7,202.6,160.7z"/>
			</g>
			<g>
				<path class="st1" d="M256.5,173.2l-0.7,2.7c-0.8,0.4-1.7,0.7-2.7,0.2c-1.4-0.7-1.5-2.2-1.5-3.4c0-1-0.1-1.5-0.5-1.7
					c-0.4-0.2-0.8,0.1-1.6,0.6c-0.9,0.6-2.2,1.5-3.6,0.7c-1.4-0.7-1.5-2.2-1.5-3.4c0-1-0.1-1.5-0.5-1.7c-0.5-0.2-0.7-0.8-0.4-1.3
					c0.2-0.5,0.8-0.7,1.3-0.4c1.4,0.7,1.5,2.2,1.5,3.4c0,1,0.1,1.5,0.5,1.7c0.4,0.2,0.8-0.1,1.6-0.6c0.9-0.6,2.2-1.5,3.6-0.8
					c1.4,0.7,1.5,2.2,1.5,3.4c0,0.9,0.1,1.5,0.5,1.7c0.4,0.2,0.8-0.1,1.7-0.6C255.9,173.6,256.2,173.4,256.5,173.2z"/>
			</g>
			<g>
				<path class="st1" d="M232.9,113.4c-1,0-1.9-0.7-2.6-1.2c-0.8-0.6-1.3-0.9-1.6-0.7c-0.5,0.2-1.1,0-1.3-0.5
					c-0.2-0.5,0-1.1,0.5-1.3c1.5-0.7,2.7,0.3,3.6,1c0.8,0.6,1.3,0.9,1.6,0.7c0.4-0.2,0.4-0.8,0.5-1.7c0.1-1.1,0.2-2.7,1.7-3.3
					c1.5-0.7,2.7,0.3,3.6,1c0.8,0.6,1.3,0.9,1.6,0.7c0.4-0.2,0.4-0.8,0.5-1.7c0.1-1.1,0.2-2.7,1.7-3.3c1.5-0.7,2.7,0.3,3.6,1
					c0.8,0.6,1.3,0.9,1.6,0.7c0.5-0.2,1.1,0,1.3,0.5c0.2,0.5,0,1.1-0.5,1.3c-1.5,0.7-2.7-0.3-3.6-1c-0.8-0.6-1.3-0.9-1.6-0.7
					c-0.4,0.2-0.4,0.8-0.5,1.7c-0.1,1.1-0.2,2.7-1.7,3.3c-1.5,0.7-2.7-0.3-3.6-1c-0.8-0.6-1.3-0.9-1.6-0.7c-0.4,0.2-0.4,0.8-0.5,1.7
					c-0.1,1.1-0.2,2.7-1.7,3.3C233.6,113.3,233.3,113.4,232.9,113.4z"/>
			</g>
			<g>
				<path class="st1" d="M190.2,117.1c-0.2,0.2-0.4,0.3-0.7,0.3c-0.3,0-0.5-0.1-0.7-0.3c-1.1-1.1-0.8-2.4-0.6-3.3
					c0.2-0.9,0.2-1.3-0.1-1.6c-0.3-0.3-0.7-0.3-1.6-0.2c-1,0.2-2.3,0.4-3.3-0.7c-1.1-1.1-0.8-2.4-0.6-3.3c0.2-0.9,0.2-1.3-0.1-1.6
					c-0.3-0.3-0.7-0.3-1.6-0.2c-0.9,0.1-2.2,0.3-3.2-0.6c0.4-0.5,0.9-0.9,1.3-1.4c0.3,0.3,0.7,0.2,1.5,0.1c1-0.2,2.3-0.4,3.3,0.7
					c1.1,1.1,0.8,2.4,0.6,3.3c-0.2,0.9-0.2,1.3,0.1,1.6c0.3,0.3,0.7,0.3,1.6,0.2c1-0.2,2.3-0.4,3.3,0.7c1.1,1.1,0.8,2.4,0.6,3.3
					c-0.2,0.9-0.2,1.3,0.1,1.6C190.6,116.2,190.5,116.8,190.2,117.1z"/>
			</g>
			<g>
				<path class="st1" d="M203,184.7c-0.1,0.4-0.5,0.7-0.9,0.7c-0.1,0-0.2,0-0.3,0c-1.5-0.4-1.9-2-2.1-3.2c-0.2-1-0.4-1.6-0.7-1.7
					c-0.4-0.1-0.8,0.3-1.5,1.1c-0.8,0.9-1.9,2-3.5,1.6c-1.5-0.4-1.9-2-2.1-3.2c-0.2-1-0.4-1.6-0.7-1.7c-0.4-0.1-2.1,0.3-1.5,1.1
					c0.8,1.1-1.5,2.8-2.3,1.6l-0.6-1.9c0.4,0.1,0.8-0.4,1.5-1.1c0.8-0.9,1.9-2,3.5-1.6c1.5,0.4,1.9,2,2.1,3.2c0.2,1,0.4,1.6,0.7,1.7
					c0.4,0.1,0.8-0.4,1.5-1.1c0.8-0.9,1.9-2,3.5-1.6c1.5,0.4,1.9,2,2.1,3.2c0.2,1,0.4,1.6,0.7,1.7
					C202.8,183.6,203.1,184.2,203,184.7z"/>
			</g>
			<g>
				<path class="st1" d="M243.1,154.4l-6.7-11.7c-0.2-0.3-0.5-0.5-0.8-0.5s-0.7,0.2-0.8,0.5l-6.8,11.7c-0.2,0.3-0.2,0.7,0,1
					c0.2,0.3,0.5,0.5,0.8,0.5h13.5c0.3,0,0.7-0.2,0.8-0.5C243.3,155.1,243.3,154.7,243.1,154.4z M230.4,153.9l5.1-8.8l5.1,8.8H230.4
					z"/>
			</g>
			<g>
				<path class="st1" d="M218,118l-1.7-2.9l-5.1-8.8c-0.2-0.3-0.5-0.5-0.8-0.5c-0.4,0-0.7,0.2-0.8,0.5l-6,10.4l-0.8,1.3
					c-0.2,0.3-0.2,0.7,0,1c0.2,0.3,0.5,0.5,0.8,0.5h13.5c0.4,0,0.7-0.2,0.8-0.5C218.2,118.7,218.2,118.3,218,118z M205.4,117.5
					l0.6-1.1l4.4-7.7l3.9,6.7l1.2,2.1H205.4z"/>
			</g>
			<g>
				<path class="st1" d="M195.2,90.9v6.2l-4.5-2.6l-1.6,1.3l6.6,3.8c0.2,0.1,0.3,0.1,0.5,0.1c0.2,0,0.3,0,0.5-0.1
					c0.3-0.2,0.5-0.5,0.5-0.8v-9.4L195.2,90.9z"/>
			</g>
			<g>
				<path class="st1" d="M297.8,128.2c-0.1-0.3-0.4-0.5-0.8-0.6l-13.4-1.8c-0.3,0-0.7,0.1-0.9,0.4c-0.2,0.3-0.3,0.6-0.1,1l5.1,12.5
					c0.1,0.2,0.3,0.4,0.5,0.5c0.1,0,0.2,0.1,0.3,0.1c0,0,0.1,0,0.1,0c0.3,0,0.6-0.1,0.8-0.4l4.3-5.5l4-5.2
					C297.9,128.9,297.9,128.5,297.8,128.2z M288.9,137.3l-3.8-9.4l10,1.4L288.9,137.3z"/>
			</g>
			<g>
				<path class="st1" d="M267.7,139.9c-0.1-0.3-0.4-0.5-0.8-0.6l-11.1-1.5l-2.2-0.3c-0.3,0-0.7,0.1-0.9,0.4c-0.2,0.3-0.3,0.6-0.1,1
					l1.1,2.7l0.4,1.1l2.8,1.8l-0.4-1l-1.5-3.7l3.8,0.5l6.3,0.9l-2,2.6l-2,2.6l-0.4,0.5l1.6,1l0.4-0.5l1.9-2.4l3.1-4
					C267.8,140.6,267.8,140.2,267.7,139.9z"/>
			</g>
			<g>
				<path class="st1" d="M283.3,105.4l-4.4,1.1l-4.8,1.2l0.8-2.8l1.1-3.7l-0.7-0.4l-1-0.6l-0.4,1.5l-2.1,7.1c0,0,0,0.1,0,0.1
					c-0.1,0.3,0,0.6,0.2,0.9c0.2,0.2,0.4,0.3,0.7,0.3c0.1,0,0.2,0,0.2,0l7.9-1.9l4.9-1.2L283.3,105.4z"/>
			</g>
			<g>
				<path class="st1" d="M232.8,175.5c-0.7-3-3.4-5.3-6.6-5.3c-3.8,0-6.8,3.1-6.8,6.8c0,1.3,0.4,2.5,1,3.5c1.2,2,3.4,3.3,5.8,3.3
					c0.6,0,1.1-0.1,1.7-0.2c1.6-0.4,3-1.4,3.9-2.8c0.7-1.1,1.2-2.4,1.2-3.8C232.9,176.5,232.9,176,232.8,175.5z M226.1,181.9
					c-1.3,0-2.4-0.5-3.3-1.3c-1-0.9-1.6-2.2-1.6-3.6c0-2.7,2.2-4.9,4.9-4.9c2.7,0,4.9,2.2,4.9,4.9c0,1.5-0.7,2.9-1.8,3.8
					C228.4,181.5,227.3,181.9,226.1,181.9z"/>
			</g>
			<g>
				<path class="st1" d="M267.8,114.9c-0.3,0-0.7,0-1,0.1c-3.3,0.5-5.8,3.3-5.8,6.7c0,0.1,0,0.3,0,0.4c0.2,3.6,3.2,6.4,6.8,6.4
					c3.8,0,6.8-3.1,6.8-6.8S271.5,114.9,267.8,114.9z M267.8,126.6c-2.7,0-4.9-2.2-4.9-4.9c0-2.7,2.2-4.9,4.9-4.9
					c2.7,0,4.9,2.2,4.9,4.9C272.6,124.4,270.5,126.6,267.8,126.6z"/>
			</g>
			<g>
				<path class="st1" d="M253.2,87.8c-0.9,1.3-2.4,2.2-4.1,2.2c-2.7,0-4.9-2.2-4.9-4.9c0-0.8,0.2-1.6,0.6-2.2l-1.7-1
					c-0.5,1-0.8,2.1-0.8,3.2c0,3.8,3.1,6.8,6.8,6.8c2.4,0,4.6-1.3,5.8-3.2L253.2,87.8z"/>
			</g>
			<g>
				<path class="st3" d="M221.6,28.2c-0.3,0-0.6-0.2-0.6-0.5c-0.1-0.2-1.5-5.5-0.4-10.6c0.1-0.4,0.4-0.6,0.8-0.5
					c0.4,0.1,0.6,0.4,0.5,0.8c-1,4.8,0.3,10,0.4,10c0.1,0.4-0.1,0.7-0.5,0.8C221.7,28.2,221.7,28.2,221.6,28.2z"/>
			</g>
			<g>
				<path class="st3" d="M262.7,148.7c-0.1,0-0.2,0-0.3-0.1l-2.1-1.3l-6.5-4.1l-18.5-11.8c-0.3-0.2-0.4-0.6-0.2-0.9
					c0.2-0.3,0.6-0.4,0.9-0.2l18.5,11.8l8.6,5.5c0.3,0.2,0.4,0.6,0.2,0.9C263.1,148.6,262.9,148.7,262.7,148.7z"/>
			</g>
			<path class="st1" d="M143.2,151c0,0-12.6,0.5-12.6,0.5c-0.2-0.2-1.2-0.1-1.5-0.1c-1.5-0.1-2.9-0.2-4.4-0.3
				c-3.7-0.3-7.3-0.5-10.9-0.7c-7.3-0.4-14.3-4.8-21.2-7.1c-1.4-0.5-4.3-2.2-6.3-3.5c-1.3-0.8-2-2.4-1.7-3.9h0
				c0.4-2,2.4-3.3,4.4-2.9l4.7,1l-1.8-4.7c-1-2.8,0.9-5.7,3.8-5.9l0,0c1.7-0.1,3.4,0.8,4.2,2.4l3.5,7l0.7,0l-1-4.9
				c-0.3-1.8,0.9-3.4,2.7-3.6l0,0c0.9-0.1,1.7,0.3,2.3,0.9l4.2,4.4c1.8,1.9,4,3.4,6.5,4.5l0,0c2.3,1,4.7,1.6,7.1,1.7l5.3,0.3
				l-2.6-3.6c-1.2-1.7-1.2-4.2,0.3-5.6c1.4-1.4,3.5-1.6,5.1-0.6l6.5,3.9c6,3.6,10.8,8.9,13.8,15.3l9.5,2.4L143.2,151z"/>
			<path class="st1" d="M405.6,75.1c-1.8,1.6-4.4,3.8-5.6,4.5c-6.4,3.4-12.6,8.9-19.7,10.4c-3.6,0.8-7.1,1.6-10.7,2.5
				c-1.4,0.3-2.9,0.7-4.3,1c-0.3,0.1-1.3,0.1-1.5,0.4c0,0-0.5,0.1-1.2,0.2c-3.1,0.4-11.3,1.4-11.3,1.4L333,95.6l1.5-1.9l4.7-2
				c0.7-2.5,1.6-4.8,2.8-7c2.1-3.9,4.9-7.4,8.3-10.3l5.8-4.9c1.4-1.2,3.5-1.4,5.1-0.2c1.7,1.2,2.2,3.6,1.3,5.5l-2,4l5.2-1.1
				c1.2-0.3,2.4-0.6,3.5-1.1c1.1-0.5,2.2-1.1,3.3-1.7c2.2-1.4,4.1-3.3,5.6-5.5l3.4-5c0.5-0.7,1.2-1.1,2-1.3c0.1,0,0.1,0,0.2,0
				c1.8-0.2,3.3,1.3,3.3,3.1l-0.1,5l0.6-0.1l2.3-7.4c0.5-1.6,1.8-2.7,3.5-3c0.1,0,0.2,0,0.3,0c2.9-0.3,5.3,2.3,4.7,5.2l-1,4.9
				l4.4-1.7c0.3-0.1,0.5-0.2,0.8-0.2c1.7-0.3,3.4,0.7,4,2.3C407.1,72.5,406.7,74.1,405.6,75.1z"/>
		</g>
		<path class="st0" d="M336.4,29.6c1.8,3.1,5.5,4.6,8.2,5.4c2,0.5,3.5,0.7,3.5,0.7s3.8-7.9,0.7-13.2c-1.7-2.9-5.1-4.5-7.8-5.3
			c-2.2-0.6-3.9-0.8-3.9-0.8S333.4,24.3,336.4,29.6z"/>
		<path class="st0" d="M351.9,79.6L351.9,79.6c-2.4,0-4.4-2-4.4-4.4V63c0-2.4,2-4.4,4.4-4.4h0c2.4,0,4.4,2,4.4,4.4v12.2
			C356.4,77.6,354.4,79.6,351.9,79.6z"/>
		<path class="st4" d="M363.7,79.6L363.7,79.6c-2.4,0-4.4-2-4.4-4.4V63c0-2.4,2-4.4,4.4-4.4h0c2.4,0,4.4,2,4.4,4.4v12.2
			C368.1,77.6,366.1,79.6,363.7,79.6z"/>
		<path class="st0" d="M383.9,79.6L383.9,79.6c-2.4,0-4.4-2-4.4-4.4V63c0-2.4,2-4.4,4.4-4.4l0,0c2.4,0,4.4,2,4.4,4.4v12.2
			C388.3,77.6,386.4,79.6,383.9,79.6z"/>
		<path class="st4" d="M395.6,79.6L395.6,79.6c-2.4,0-4.4-2-4.4-4.4V63c0-2.4,2-4.4,4.4-4.4l0,0c2.4,0,4.4,2,4.4,4.4v12.2
			C400.1,77.6,398.1,79.6,395.6,79.6z"/>
		<path class="st4" d="M387.8,72h-28.3c-13.9,0-25.2-11.3-25.2-25.2v0c0-13.9,11.3-25.2,25.2-25.2h28.3c13.9,0,25.2,11.3,25.2,25.2
			v0C413.1,60.7,401.8,72,387.8,72z"/>
		<g>
			<path class="st3" d="M405.5,43.5c-0.3,0-0.5-0.2-0.6-0.4c-1.7-5.1-5.1-9.5-9.6-12.5c-0.3-0.2-0.4-0.6-0.2-0.9
				c0.2-0.3,0.6-0.4,0.9-0.2c4.7,3.2,8.3,7.8,10.1,13.2c0.1,0.3-0.1,0.7-0.4,0.8C405.6,43.5,405.5,43.5,405.5,43.5z"/>
		</g>
		<path class="st2" d="M344.7,61.2h-7.8c-5.6,0-10.1-4.5-10.1-10.1v0c0-5.6,4.5-10.1,10.1-10.1h7.8c5.6,0,10.1,4.5,10.1,10.1v0
			C354.8,56.7,350.3,61.2,344.7,61.2z"/>
		<path class="st4" d="M344.7,61.2h-7.8c-5.6,0-10.1-4.5-10.1-10.1v0c0-5.6,4.5-10.1,10.1-10.1h7.8c5.6,0,10.1,4.5,10.1,10.1v0
			C354.8,56.7,350.3,61.2,344.7,61.2z"/>
		<g>
			<path class="st5" d="M386.4,20.9c0,1.9-0.3,3.7-1,5.3h-1.1c-0.1,0.1-0.2,0.2-0.2,0.3c0-0.1,0-0.2,0-0.3h-23.3
				c-0.6-1.5-1-3.1-1-4.8c-0.1-7.3,5.7-13.4,13-13.5c0.8,0,1.5,0,2.2,0.1C381.4,8.9,386.3,14.3,386.4,20.9z"/>
			<path class="st5" d="M390.8,20.8c0,1.9-0.3,3.7-1,5.4h-5.5c-0.1,0.1-0.2,0.2-0.2,0.3c0-0.1,0-0.2,0-0.3h-18.8
				c-0.6-1.5-1-3.1-1-4.9c-0.1-6.6,4.5-12.1,10.8-13.3c0.7-0.1,1.5-0.2,2.2-0.2C384.6,7.6,390.7,13.5,390.8,20.8z"/>
			<g>
				<path class="st3" d="M386.5,20.9c0-0.8-0.1-1.7-0.4-2.4c-0.4-1.5-1.3-2.8-2.4-3.9c-0.4-0.4-0.8-0.7-1.3-1
					c-1.5-1-3.2-1.5-5.1-1.4c-0.1,0-0.3,0-0.4,0c-0.8,0.1-1.7,0.2-2.4,0.5c-3.3,1.2-5.5,4.2-5.9,7.6c0,0.3,0,0.7,0,1
					c0,0.1,0,0.2,0,0.3c0.1,0.9,0.2,1.9,0.6,2.7c0.2,0.5,0.4,1,0.7,1.5c0.1,0.2,0.2,0.3,0.3,0.4c0.1,0.1,0.1,0.2,0.2,0.3
					c0.1,0.1,0.2,0.2,0.4,0.2h12.9c0,0,0,0,0,0c0.1,0.1,0.9-0.1,1-0.2c0.1-0.1,0.1-0.2,0.2-0.3c0.1-0.1,0.2-0.3,0.3-0.4
					c0.5-0.8,0.8-1.6,1-2.4c0.2-0.6,0.2-1.2,0.3-1.8c0-0.2,0-0.3,0-0.5C386.5,21,386.5,20.9,386.5,20.9z M384.2,25.6
					c0,0,0,0.1-0.1,0.1H371c-0.9-1.2-1.4-2.7-1.5-4.2c0-0.1,0-0.2,0-0.3c-0.1-3,1.5-5.7,4-7.2c0.4-0.2,0.8-0.4,1.3-0.6
					c0.8-0.3,1.7-0.5,2.6-0.5c2.1,0,4.1,0.7,5.7,2.2c0.2,0.2,0.5,0.5,0.7,0.7c1.2,1.4,1.8,3.1,1.9,5c0,0.2,0,0.4,0,0.7
					C385.5,23,385.1,24.4,384.2,25.6z"/>
			</g>
			<g>
				<path class="st3" d="M391.3,20.8c-0.2-7.5-6.3-13.4-13.7-13.4c-0.1,0-0.2,0-0.3,0c-0.8,0-1.5,0.1-2.3,0.2
					c-0.4,0.1-0.9,0.2-1.3,0.3c-4.4,1.3-7.8,4.6-9.2,8.8c-0.3,0.8-0.5,1.7-0.6,2.5c-0.1,0.7-0.1,1.4-0.1,2.1c0,0.1,0,0.2,0,0.2
					c0.1,1.6,0.4,3.2,1,4.6c0,0.1,0,0.1,0.1,0.2c0.1,0.2,0.2,0.3,0.4,0.3h18.4c0,0,0,0,0,0c0.1,0.1,0.8,0,0.9,0h5.2
					c0.2,0,0.3-0.1,0.4-0.3c0.6-1.5,1-3,1-4.6c0-0.2,0-0.5,0-0.7C391.3,21,391.3,20.9,391.3,20.8z M390.4,21.7
					c-0.1,1.4-0.4,2.8-0.9,4.1h-5.2c0,0-0.1,0-0.1,0c0,0,0,0-0.1,0c0,0,0,0,0,0h-18.5c-0.5-1.3-0.8-2.7-0.9-4.2c0-0.1,0-0.2,0-0.2
					c0-0.1,0-0.2,0-0.3c0-1.6,0.3-3.1,0.8-4.5c1.5-4.1,5.1-7.2,9.6-8.1c0.4-0.1,0.8-0.1,1.2-0.2c0.3,0,0.6,0,0.9,0
					c0.1,0,0.2,0,0.3,0c3.5,0,6.6,1.4,9,3.7c2.3,2.3,3.8,5.4,3.9,8.9C390.4,21.1,390.4,21.4,390.4,21.7z"/>
			</g>
			<g>
				<path class="st3" d="M375.8,25.9c0,0.1,0.1,0.2,0.1,0.3h-3.5c0.1-0.8,0.8-1.4,1.7-1.5h0C374.9,24.7,375.6,25.2,375.8,25.9z"/>
				<path class="st3" d="M384.2,25.3c0,0.3,0,0.6,0,0.9h-3.6c0.1-0.2,0.1-0.5,0.1-0.8c0-0.7-0.2-1.2-0.6-1.6c-0.4-0.4-1-0.8-2-1.1
					c-1.8-0.6-3.2-1.3-4.1-2.1c-0.9-0.8-1.4-1.9-1.4-3.4c0-1.4,0.4-2.5,1.3-3.4c0.2-0.3,0.5-0.5,0.8-0.7c0.6-0.4,1.4-0.7,2.3-0.9
					l0-1.3c0-0.4,0.1-0.7,0.4-1c0.2-0.3,0.6-0.4,1-0.4c0.4,0,0.7,0.1,1,0.4c0,0,0,0,0,0c0.2,0.2,0.4,0.6,0.4,0.9l0,1.4
					c1.3,0.2,2.3,0.8,3.1,1.7c0.3,0.3,0.5,0.6,0.7,1c0.1,0.2,0.2,0.4,0.3,0.7c0.4,1.1-0.5,2.2-1.6,2.2l0,0c-0.8,0-1.5-0.5-1.7-1.2
					c-0.1-0.4-0.3-0.7-0.5-0.9c-0.4-0.5-1-0.8-1.6-0.8c-0.7,0-1.2,0.2-1.6,0.6c-0.3,0.4-0.5,1-0.5,1.6c0,0.6,0.2,1.1,0.6,1.5
					c0.4,0.4,1.1,0.8,2,1.1c1.8,0.7,3.2,1.4,4.1,2.2C383.7,22.8,384.2,23.9,384.2,25.3z"/>
			</g>
		</g>
		<g>
			<path class="st3" d="M344.7,40.3h-7.8c-0.6,0-1.2,0.1-1.8,0.2c-5.1,0.9-9,5.3-9,10.6c0,5.9,4.8,10.8,10.8,10.8h7.8
				c1,0,1.9-0.1,2.8-0.4c1.9-0.5,3.6-1.6,5-3c1.8-1.9,3-4.6,3-7.4C355.4,45.1,350.6,40.3,344.7,40.3z M350.5,58.5
				c-0.9,0.7-1.8,1.2-2.9,1.6c-0.9,0.3-1.9,0.5-3,0.5h-7.8c-5.2,0-9.5-4.2-9.5-9.5c0-4.5,3.1-8.3,7.3-9.2c0.7-0.2,1.4-0.2,2.1-0.2
				h7.8c5.2,0,9.5,4.2,9.5,9.5C354.1,54.1,352.7,56.8,350.5,58.5z"/>
		</g>
		<g>
			<path class="st3" d="M361.5,52.3C361.5,52.3,361.5,52.3,361.5,52.3c-0.4,0-0.7-0.3-0.7-0.7c0-0.2,0-0.4,0-0.6
				c0-3.2-1.6-6.1-4.2-7.9c-0.3-0.2-0.4-0.6-0.2-0.9c0.2-0.3,0.6-0.4,0.9-0.2c3,2,4.8,5.4,4.8,8.9c0,0.2,0,0.4,0,0.6
				C362.1,52.1,361.8,52.3,361.5,52.3z"/>
		</g>
		<path class="st0" d="M335.4,54.7L335.4,54.7c-1.2,0-2.3-1-2.3-2.3V50c0-1.2,1-2.3,2.3-2.3l0,0c1.2,0,2.3,1,2.3,2.3v2.5
			C337.6,53.7,336.6,54.7,335.4,54.7z"/>
		<path class="st0" d="M343.7,54.7L343.7,54.7c-1.2,0-2.3-1-2.3-2.3V50c0-1.2,1-2.3,2.3-2.3l0,0c1.2,0,2.3,1,2.3,2.3v2.5
			C345.9,53.7,344.9,54.7,343.7,54.7z"/>
		<path class="st0" d="M342.2,35.3c0,0.5-0.1,0.9-0.3,1.4c-0.5-1.1-1.6-1.8-2.9-1.8s-2.4,0.7-2.9,1.8c-0.2-0.4-0.3-0.9-0.3-1.4
			c0-1.8,1.4-3.2,3.2-3.2C340.8,32.1,342.2,33.5,342.2,35.3z"/>
		<path class="st0" d="M353.2,35.3c0,0.5-0.1,0.9-0.3,1.4c-0.5-1.1-1.6-1.8-2.9-1.8c-1.3,0-2.4,0.7-2.9,1.8
			c-0.2-0.4-0.3-0.9-0.3-1.4c0-1.8,1.4-3.2,3.2-3.2C351.8,32.1,353.2,33.5,353.2,35.3z"/>
		<path class="st4" d="M367.4,29.6c-1.8,3.1-5.5,4.6-8.2,5.4c-0.1,0-0.2,0-0.3,0.1c-1.9,0.5-3.3,0.6-3.3,0.6s-3.8-7.9-0.7-13.2
			c1.7-2.9,5.1-4.5,7.8-5.3c0,0,0.1,0,0.1,0c2.2-0.6,3.9-0.8,3.9-0.8S370.4,24.3,367.4,29.6z"/>
		<g>
			<path class="st3" d="M361.1,35c-0.3,0-0.5-0.2-0.6-0.4c-0.1-0.3,0-0.7,0.4-0.8c2.8-1.1,4.8-2.6,5.9-4.5c2.8-5-0.7-12.5-0.7-12.6
				c-0.2-0.3,0-0.7,0.3-0.9c0.3-0.2,0.7,0,0.9,0.3c0.2,0.3,3.9,8.3,0.7,13.8c-1.2,2.2-3.5,3.9-6.6,5C361.3,35,361.2,35,361.1,35z"/>
		</g>
		<path class="st0" d="M365.4,28c-1,3.3-4,5.6-6.5,7c-1.9,0.5-3.3,0.6-3.3,0.6s-3.8-7.9-0.7-13.2c1.7-2.9,5.1-4.5,7.8-5.3
			c0,0,0.1,0,0.1,0C364.3,19.5,366.5,24,365.4,28z"/>
		<path class="st0" d="M365.4,28c-1,3.3-4,5.6-6.5,7c-1.9,0.5-3.3,0.6-3.3,0.6s-3.8-7.9-0.7-13.2c1.7-2.9,5.1-4.5,7.8-5.3
			c0,0,0.1,0,0.1,0C364.3,19.5,366.5,24,365.4,28z"/>
		<g>
			<polygon class="st5" points="132.6,96.1 86.5,96.3 113.7,74.5 			"/>
			<polygon class="st5" points="155.1,96.1 109,96.3 108.4,79.4 102.3,74.2 124.6,74.2 			"/>
		</g>
		<rect x="92.8" y="93.9" class="st5" width="53.9" height="43.3"/>
		<g>
			<path class="st0" d="M129.1,96.1c0-0.3-0.3-0.6-0.7-0.6H79.9c-0.1,0-0.2,0-0.3,0.1c-0.2,0.1-0.4,0.3-0.4,0.6v41
				c0,0.4,0.3,0.7,0.7,0.7h48.5c0.4,0,0.7-0.3,0.7-0.7L129.1,96.1C129.1,96.1,129.1,96.1,129.1,96.1z M127.8,96.8v39.7H80.6V96.8
				H127.8z"/>
		</g>
		<g>
			<path class="st0" d="M133,95.5l-0.2-0.1l-2.1-1.5l-0.1-0.1l-21.9-15.5l-5.9-4.2l-0.3-0.2c-0.2-0.2-0.5-0.2-0.8,0L71.7,95.7
				c-0.2,0.2-0.3,0.5-0.2,0.7s0.3,0.5,0.6,0.5h0l7.2,0l1.3,0l12.2,0l3.9,0l32.5-0.1l3.5,0h0c0.3,0,0.5-0.2,0.6-0.5c0,0,0-0.1,0-0.1
				C133.3,95.9,133.2,95.7,133,95.5z M79.7,95.6l-5.6,0l28.1-20.3l5.6,3.9l0.7,0.5l20,14.2l2.2,1.6L109,95.5l-12.6,0l-3.6,0l-5.4,0
				L79.7,95.6z"/>
		</g>
		<circle class="st3" cx="102.3" cy="87.5" r="4.1"/>
		<g>
			<path class="st0" d="M102.2,83.7c-0.1-0.1-0.2-0.2-0.3-0.2c-0.7-0.4-1.6-0.7-2.5-0.7c-2.6,0-4.7,2.1-4.7,4.7
				c0,0.7,0.1,1.3,0.4,1.9c0.7,1.7,2.4,2.8,4.3,2.8c0.9,0,1.7-0.3,2.5-0.7c1.4-0.8,2.3-2.3,2.3-4C104.1,86,103.3,84.6,102.2,83.7z
				 M100,90.9c-0.2,0-0.4,0.1-0.7,0.1c-1.5,0-2.8-1-3.3-2.4c-0.1-0.3-0.2-0.7-0.2-1c0-1.9,1.5-3.4,3.4-3.4c0.2,0,0.4,0,0.7,0.1
				c0.4,0.1,0.7,0.2,1,0.4c1,0.6,1.7,1.7,1.7,3C102.8,89.2,101.6,90.6,100,90.9z"/>
		</g>
		<g>
			<path class="st0" d="M153,137.9H71c-0.4,0-0.7-0.3-0.7-0.7s0.3-0.7,0.7-0.7h82c0.4,0,0.7,0.3,0.7,0.7S153.3,137.9,153,137.9z"/>
		</g>
		<g>
			<path class="st0" d="M89.4,133.9c-0.4,0-0.7-0.3-0.7-0.7V99.9c0-0.4,0.3-0.7,0.7-0.7s0.7,0.3,0.7,0.7v33.3
				C90.1,133.6,89.8,133.9,89.4,133.9z"/>
		</g>
		<g>
			<path class="st0" d="M98.7,133.9c-0.4,0-0.7-0.3-0.7-0.7V99.9c0-0.4,0.3-0.7,0.7-0.7c0.4,0,0.7,0.3,0.7,0.7v33.3
				C99.3,133.6,99,133.9,98.7,133.9z"/>
		</g>
		<g>
			<path class="st0" d="M107.9,133.9c-0.4,0-0.7-0.3-0.7-0.7V99.9c0-0.4,0.3-0.7,0.7-0.7s0.7,0.3,0.7,0.7v33.3
				C108.6,133.6,108.3,133.9,107.9,133.9z"/>
		</g>
		<g>
			<path class="st0" d="M117.2,133.9c-0.4,0-0.7-0.3-0.7-0.7V99.9c0-0.4,0.3-0.7,0.7-0.7s0.7,0.3,0.7,0.7v33.3
				C117.8,133.6,117.5,133.9,117.2,133.9z"/>
		</g>
		<g>
			<path class="st0" d="M155.1,96.7h-22.5c-0.4,0-0.7-0.3-0.7-0.7c0-0.4,0.3-0.7,0.7-0.7h22.5c0.4,0,0.7,0.3,0.7,0.7
				C155.8,96.4,155.5,96.7,155.1,96.7z"/>
		</g>
		<g>
			<g>
				<path class="st0" d="M91.8,100.6h-4.7c-0.4,0-0.7-0.3-0.7-0.7s0.3-0.7,0.7-0.7h4.7c0.4,0,0.7,0.3,0.7,0.7S92.1,100.6,91.8,100.6
					z"/>
			</g>
			<g>
				<path class="st0" d="M101,100.6h-4.7c-0.4,0-0.7-0.3-0.7-0.7s0.3-0.7,0.7-0.7h4.7c0.4,0,0.7,0.3,0.7,0.7S101.4,100.6,101,100.6z
					"/>
			</g>
			<g>
				<path class="st0" d="M110.3,100.6h-4.7c-0.4,0-0.7-0.3-0.7-0.7s0.3-0.7,0.7-0.7h4.7c0.4,0,0.7,0.3,0.7,0.7
					S110.6,100.6,110.3,100.6z"/>
			</g>
			<g>
				<path class="st0" d="M119.5,100.6h-4.7c-0.4,0-0.7-0.3-0.7-0.7s0.3-0.7,0.7-0.7h4.7c0.4,0,0.7,0.3,0.7,0.7
					S119.9,100.6,119.5,100.6z"/>
			</g>
		</g>
		<g>
			<g>
				<path class="st0" d="M91.8,134.4h-4.7c-0.4,0-0.7-0.3-0.7-0.7c0-0.4,0.3-0.7,0.7-0.7h4.7c0.4,0,0.7,0.3,0.7,0.7
					C92.4,134.1,92.1,134.4,91.8,134.4z"/>
			</g>
			<g>
				<path class="st0" d="M101,134.4h-4.7c-0.4,0-0.7-0.3-0.7-0.7c0-0.4,0.3-0.7,0.7-0.7h4.7c0.4,0,0.7,0.3,0.7,0.7
					C101.7,134.1,101.4,134.4,101,134.4z"/>
			</g>
			<g>
				<path class="st0" d="M110.3,134.4h-4.7c-0.4,0-0.7-0.3-0.7-0.7c0-0.4,0.3-0.7,0.7-0.7h4.7c0.4,0,0.7,0.3,0.7,0.7
					C110.9,134.1,110.6,134.4,110.3,134.4z"/>
			</g>
			<g>
				<path class="st0" d="M119.5,134.4h-4.7c-0.4,0-0.7-0.3-0.7-0.7c0-0.4,0.3-0.7,0.7-0.7h4.7c0.4,0,0.7,0.3,0.7,0.7
					C120.2,134.1,119.9,134.4,119.5,134.4z"/>
			</g>
		</g>
	</g>
</g>
</svg>
